<svg xmlns="http://www.w3.org/2000/svg" viewBox="0 0 1200 675" width="1200" height="675" role="img">
  <defs>
    <linearGradient id="gwpformsjetpackelementorintegrations" x1="0" y1="0" x2="0.889" y2="0.815">
      <stop offset="0" stop-color="#8b5cf6"/>
      <stop offset="0.55" stop-color="#ec4899"/>
      <stop offset="1" stop-color="#6d28d9"/>
    </linearGradient>
    <radialGradient id="hlwpformsjetpackelementorintegrations" cx="0.32" cy="0.28" r="0.9">
      <stop offset="0" stop-color="#ffffff" stop-opacity="0.28"/>
      <stop offset="0.5" stop-color="#ffffff" stop-opacity="0"/>
    </radialGradient>
    <filter id="softwpformsjetpackelementorintegrations" x="-30%" y="-30%" width="160%" height="160%">
      <feGaussianBlur stdDeviation="34"/>
    </filter>
    <pattern id="dotswpformsjetpackelementorintegrations" width="34" height="34" patternUnits="userSpaceOnUse">
      <circle cx="2" cy="2" r="2" fill="#ffffff" opacity="0.10"/>
    </pattern>
  </defs>

  <rect width="1200" height="675" fill="url(#gwpformsjetpackelementorintegrations)"/>
  <rect width="1200" height="675" fill="url(#dotswpformsjetpackelementorintegrations)"/>
  <circle cx="189" cy="129" r="200" fill="#ffffff" opacity="0.12" filter="url(#softwpformsjetpackelementorintegrations)"/>
  <circle cx="941" cy="491" r="240" fill="#000000" opacity="0.10" filter="url(#softwpformsjetpackelementorintegrations)"/>
  <rect width="1200" height="675" fill="url(#hlwpformsjetpackelementorintegrations)"/>

  <g transform="translate(600 336)">
    <circle r="184" fill="#ffffff" opacity="0.10"/>
    <circle r="184" fill="none" stroke="#ffffff" stroke-opacity="0.25" stroke-width="2"/>
    <circle r="232" fill="none" stroke="#ffffff" stroke-opacity="0.14" stroke-width="2" stroke-dasharray="3 16"/>
    <g fill="none" stroke="#ffffff" stroke-width="11" stroke-linecap="round" stroke-linejoin="round" transform="scale(0.92)">
      <rect x="-98" y="-98" width="90" height="90" rx="11"/><rect x="8" y="-98" width="90" height="90" rx="11"/><rect x="-98" y="8" width="90" height="90" rx="11"/><rect x="8" y="8" width="90" height="90" rx="11"/><circle cx="0" cy="-53" r="15" fill="#fff" stroke="none"/><circle cx="-53" cy="0" r="15" fill="#fff" stroke="none"/>
    </g>
  </g>
</svg>
